<svg width="143" height="80" viewBox="0 0 143 80" fill="none" xmlns="http://www.w3.org/2000/svg">
<path d="M140.14 0H2.86C2.10148 0 1.37403 0.301018 0.837675 0.836836C0.301321 1.37265 0 2.09938 0 2.85714C0.0238866 16.2167 3.78577 29.3037 10.8609 40.6404C17.9361 51.9771 28.0428 61.1122 40.04 67.0143V71.4286C40.04 73.7019 40.944 75.882 42.553 77.4895C44.1621 79.0969 46.3444 80 48.62 80H94.38C96.6556 80 98.8379 79.0969 100.447 77.4895C102.056 75.882 102.96 73.7019 102.96 71.4286V67.0143C114.957 61.1122 125.064 51.9771 132.139 40.6404C139.214 29.3037 142.976 16.2167 143 2.85714C143 2.09938 142.699 1.37265 142.162 0.836836C141.626 0.301018 140.899 0 140.14 0ZM98.906 62.6143C98.4082 62.8428 97.9865 63.2092 97.6912 63.6702C97.3959 64.1311 97.2393 64.667 97.24 65.2143V71.4286C97.24 72.1863 96.9387 72.913 96.4023 73.4489C95.866 73.9847 95.1385 74.2857 94.38 74.2857H48.62C47.8615 74.2857 47.134 73.9847 46.5977 73.4489C46.0613 72.913 45.76 72.1863 45.76 71.4286V65.2143C45.7607 64.667 45.6041 64.1311 45.3088 63.6702C45.0134 63.2092 44.5918 62.8428 44.094 62.6143C33.0989 57.5522 23.7092 49.5665 16.9524 39.5309C10.1956 29.4953 6.33201 17.7964 5.78435 5.71429H137.216C136.668 17.7964 132.804 29.4953 126.048 39.5309C119.291 49.5665 109.901 57.5522 98.906 62.6143Z" fill="black"/>
</svg>
