<svg width="165" height="76" viewBox="0 0 165 76" fill="none" xmlns="http://www.w3.org/2000/svg">
<path d="M20.543 73.0165C20.207 73.0767 19.9785 72.8901 19.8575 72.4567C19.7895 68.3293 19.8134 65.2582 19.9291 63.2435C20.0695 61.2461 20.3024 58.9178 20.6277 56.2587C19.0255 58.3231 16.6809 59.6319 13.5941 60.1852C12.0822 60.4562 10.7118 60.2468 9.48274 59.5568C8.27473 58.863 7.27164 57.8616 6.4735 56.5526C5.67535 55.2435 5.13325 53.791 4.84719 52.1951C4.30519 49.1713 4.35254 45.8685 4.98924 42.2866C5.64693 38.701 6.74035 35.6116 8.26949 33.0185C9.81963 30.4216 11.5606 28.95 13.4925 28.6037C15.2354 28.2913 16.7259 28.566 17.964 29.4277C19.2194 30.2647 20.1702 31.5789 20.8164 33.3703C20.8453 34.0154 20.7338 34.3604 20.4818 34.4056C20.2718 34.4433 19.9679 34.2593 19.5701 33.8538C19.1934 33.4445 18.7977 32.9303 18.3833 32.311C17.2106 30.4839 15.6687 29.7416 13.7579 30.0841C11.868 30.4229 10.2664 31.8261 8.95323 34.2939C7.63626 36.7406 6.73807 39.5891 6.25866 42.8393C5.7755 46.0686 5.74845 48.8801 6.17754 51.274C6.62544 53.7728 7.45439 55.7374 8.66439 57.1677C9.87063 58.577 11.5027 59.0972 13.5605 58.7283C17.1933 58.0772 19.4905 56.6251 20.4521 54.3721C20.6977 53.8079 20.844 53.294 20.891 52.8305C20.9379 52.3669 20.9181 51.8936 20.8315 51.4107C20.6738 51.1355 20.0607 50.6169 18.9922 49.8548C17.9236 49.0927 16.9519 48.5083 16.0771 48.1016C14.7821 48.6155 13.2944 49.1422 11.6139 49.6818C11.1864 49.7151 10.9426 49.5638 10.8823 49.2278C10.8334 48.9548 10.9161 48.6907 11.1305 48.4356C12.3185 47.204 13.4164 46.4979 14.4244 46.3172C15.0333 46.2081 15.6495 46.2602 16.2729 46.4735C18.7332 45.4473 21.4478 44.148 24.417 42.5755C24.9209 42.4852 25.2049 42.6185 25.2689 42.9755C25.2915 43.1014 25.2777 43.2665 25.2276 43.4705C23.3205 48.4288 22.1474 53.6131 21.7084 59.0234C21.561 60.7403 21.4686 62.2198 21.4312 63.4619C21.3975 64.725 21.36 66.3898 21.3186 68.4561L21.2669 71.9765C21.2873 72.2112 21.2075 72.4314 21.0276 72.6371C20.8725 72.8599 20.711 72.9864 20.543 73.0165ZM21.7105 50.1478C21.9148 49.3526 22.1901 48.3496 22.5366 47.1388C22.9041 45.9243 23.1608 45.1197 23.3068 44.7251C21.5298 45.6938 19.7569 46.5642 17.9881 47.3364C18.5539 47.7118 19.2139 48.1896 19.968 48.7696C20.7222 49.3496 21.303 49.809 21.7105 50.1478ZM32.8407 56.5403C31.7488 56.7361 30.8527 56.4524 30.1524 55.6893C29.4731 54.9224 29.0262 53.9406 28.8117 52.7436C28.4691 50.8328 28.4529 48.9284 28.7629 47.0306C29.0902 45.108 29.7049 43.4591 30.607 42.0836C31.4634 40.6948 32.5636 39.8799 33.9075 39.639C35.8394 39.2927 37.0688 40.5895 37.5957 43.5293C37.8592 44.9992 37.8868 46.5439 37.6786 48.1634C37.4704 49.7828 37.0851 51.2607 36.5227 52.5968C35.9813 53.9293 35.3482 54.9314 34.6233 55.6031C34.0649 56.115 33.4707 56.4274 32.8407 56.5403ZM32.8386 55.0778C33.4896 54.9611 34.1124 54.2643 34.7071 52.9873C35.3228 51.7066 35.7531 50.1773 35.998 48.3996C36.2638 46.6181 36.2913 45.1393 36.0806 43.9634C35.8623 42.7455 35.6533 42.0027 35.4536 41.7351C35.2711 41.4427 35.0741 41.2504 34.8625 41.1583C34.651 41.0662 34.3457 41.0559 33.9467 41.1274C33.5058 41.2065 33.0739 41.4572 32.6511 41.8798C31.7944 42.6619 31.1426 43.8624 30.6959 45.4813C29.9819 47.9066 29.8132 50.1692 30.1895 52.2691C30.4455 53.697 31.0319 54.6105 31.9487 55.0097C32.269 55.104 32.5657 55.1267 32.8386 55.0778ZM42.4375 54.7876C42.0806 54.8516 41.8701 54.7051 41.8061 54.3482C41.7534 54.0542 41.9072 48.9876 42.2676 39.1483C42.3474 36.2081 42.4111 33.2383 42.4586 30.2388C42.5234 27.2146 42.5719 25.0061 42.604 23.6132C42.6525 23.2794 42.8028 23.09 43.0547 23.0448C43.6007 22.9469 43.9837 23.1492 44.2038 23.6516C44.1808 25.2162 44.1262 27.6317 44.0398 30.8982C43.9496 34.1437 43.8693 36.8997 43.7988 39.1664L43.5899 44.8931C44.9413 40.0995 46.5725 37.5314 48.4834 37.1889C49.2183 37.0571 49.838 37.2495 50.3424 37.7659C50.843 38.2614 51.1648 38.9081 51.3078 39.706C51.4471 40.483 51.495 41.5364 51.4516 42.8662L51.4219 45.6024C51.3797 48.7526 51.3962 50.5377 51.4715 50.9577L51.7547 52.1748C51.8036 52.4478 51.7487 52.6852 51.5898 52.8871C51.4481 53.0642 51.2303 53.1791 50.9364 53.2318C50.6634 53.2807 50.4383 53.2343 50.2612 53.0927C50.0804 52.9301 49.9617 52.6912 49.9052 52.3763C49.8714 52.1873 49.8555 52.0384 49.8577 51.9296L49.8497 41.3653C49.8562 41.0391 49.82 40.6554 49.7409 40.2145C49.5527 39.1645 49.1646 38.6923 48.5767 38.7977C47.9047 38.9181 47.2122 39.6491 46.499 40.9906C45.7821 42.3112 45.1459 43.7798 44.5904 45.3965C44.0559 47.0094 43.7401 48.1497 43.6431 48.8173C43.5266 49.6184 43.4375 50.5121 43.3759 51.4985C43.3106 52.4638 43.3005 53.0725 43.3456 53.3245C43.4607 53.8457 43.4685 54.1911 43.3688 54.3606C43.2729 54.5512 42.9625 54.6935 42.4375 54.7876ZM66.524 50.2752C66.041 50.3618 65.5444 50.1907 65.0341 49.762C64.541 49.3086 64.2418 48.7879 64.1364 48.1999C63.903 46.898 63.8543 44.631 63.9902 41.399C63.6685 42.627 63.1949 43.9148 62.5695 45.2623C61.9613 46.585 61.3392 47.7693 60.7031 48.8153C60.067 49.8613 59.5844 50.5546 59.2554 50.8954C58.8019 51.3884 58.2602 51.6914 57.6303 51.8043C56.4333 52.0189 55.6994 51.3702 55.4284 49.8583C55.1649 48.3884 55.3939 46.4618 56.1154 44.0784C56.8331 41.6741 57.8135 39.5261 59.0566 37.6344C60.3034 35.7637 61.3993 34.7437 62.3443 34.5743C63.3102 34.4012 63.9315 34.7233 64.208 35.5407C64.3162 35.7814 64.3966 36.0487 64.4493 36.3427C64.543 36.2609 64.6528 36.2087 64.7788 36.1861C65.2618 36.0995 65.5447 36.2872 65.6275 36.7492L65.6501 36.8752L65.5205 38.3289C65.4147 39.4315 65.3888 41.04 65.4427 43.1543C65.4966 45.2686 65.6458 47.0082 65.8905 48.3731L66.2393 48.5057C66.7998 48.7303 67.1082 49.0001 67.1647 49.3151C67.2023 49.5251 67.1627 49.7273 67.0458 49.9216C66.9289 50.1159 66.755 50.2338 66.524 50.2752ZM57.5887 50.1213C57.8197 50.0799 57.9955 49.9725 58.1161 49.7992C59.9305 47.5884 61.3773 44.7174 62.4566 41.1863C62.9297 39.7144 63.2126 38.7534 63.3053 38.3033C63.419 37.8494 63.4401 37.423 63.3686 37.0241C63.3309 36.8141 63.2445 36.6345 63.1094 36.4853C62.9743 36.3362 62.8228 36.2766 62.6548 36.3067C62.4448 36.3444 62.1888 36.4878 61.8867 36.737C61.1258 37.3285 60.2958 38.4418 59.3968 40.0767C58.5189 41.7078 57.8554 43.3872 57.4065 45.1149C56.9194 46.871 56.7887 48.3791 57.0146 49.639C57.0823 50.017 57.2737 50.1777 57.5887 50.1213ZM79.3102 48.1134C78.9742 48.1736 78.7214 48.1539 78.5518 48.0543C78.3823 47.9546 78.2902 47.7435 78.2758 47.421L78.1706 37.947C78.1563 36.7792 78.0946 35.8908 77.9855 35.2818C77.8048 34.2739 77.431 33.8207 76.864 33.9224C76.1711 34.0466 75.4321 35.4252 74.647 38.0584C73.8791 40.6668 73.1258 43.5977 72.3868 46.8511L72.1265 47.9381C71.8954 48.8248 71.5908 49.302 71.2128 49.3697C71.0028 49.4074 70.8588 49.3899 70.7807 49.3172C70.7199 49.2197 70.6613 49.0135 70.6048 48.6985C70.5484 48.3835 70.5231 45.8848 70.5291 41.2023C70.556 36.516 70.6118 34.0461 70.6964 33.7925C70.7772 33.5179 70.8539 33.3416 70.9266 33.2636C71.0204 33.1818 71.2037 33.1164 71.4767 33.0675C71.7287 33.0223 71.9451 33.081 72.126 33.2437C72.3278 33.4025 72.4457 33.5765 72.4796 33.7655C72.5021 33.8915 72.4705 34.3197 72.3848 35.0503C72.1387 37.3051 72.0179 39.4724 72.0222 41.5523L72.0404 43.4671C72.2618 42.6472 72.4189 42.0122 72.5116 41.5621C72.855 40.0918 73.1759 38.7989 73.4744 37.6834C73.794 36.5641 74.1792 35.5089 74.63 34.5178C75.3169 33.0293 76.0592 32.2135 76.8572 32.0705C78.2641 31.8183 79.1708 32.8262 79.5773 35.094C79.6639 35.577 79.7119 36.2077 79.7214 36.9863C79.7309 37.7648 79.7337 38.5662 79.7297 39.3905C79.7105 40.9761 79.7097 42.0599 79.7274 42.642L79.7666 44.1304C79.811 45.4662 79.8142 46.4517 79.7764 47.087C79.7386 47.7223 79.5831 48.0645 79.3102 48.1134ZM97.2978 28.5692C98.4641 28.4252 99.6256 28.6179 100.783 29.1474C101.936 29.656 102.921 30.3787 103.739 31.3158C104.554 32.2318 105.053 33.2042 105.238 34.2332C105.765 37.173 105.042 39.6107 103.07 41.5464C101.098 43.482 98.1065 44.8093 94.0957 45.5282L93.4286 45.6152C93.4183 45.9205 93.432 46.1782 93.4696 46.3881C93.4518 46.6514 93.374 46.8821 93.2361 47.0802C93.102 47.2993 92.9404 47.4258 92.7514 47.4597C92.3945 47.5236 92.1573 47.3494 92.04 46.937C92.0068 46.5095 92.005 46.0763 92.0347 45.6375L91.0874 45.6123C90.2421 45.6121 89.6765 45.5401 89.3907 45.3962C89.101 45.2314 88.9299 45.002 88.8772 44.708C88.8546 44.5821 88.895 44.4448 88.9984 44.2962C89.0981 44.1266 89.2004 44.0324 89.3054 44.0136C89.3684 44.0023 89.6001 44.0258 90.0007 44.084C90.4223 44.1385 90.7876 44.1814 91.0966 44.2127C91.3809 44.2268 91.712 44.1999 92.09 44.1322L92.7627 30.2924L91.8121 30.4302C91.4972 30.4867 91.3077 30.3364 91.2437 29.9795C91.1534 29.4755 91.6752 29.1219 92.8091 28.9186C92.9026 27.3847 92.9321 25.4939 92.8976 23.246C92.8614 21.7137 92.8542 20.4038 92.8759 19.3162C92.9187 18.2249 93.0208 17.1012 93.182 15.9453C93.0081 16.0632 92.7326 16.3401 92.3556 16.7762C92.235 16.9495 92.102 17.1142 91.9566 17.2703C91.8074 17.4054 91.6698 17.4843 91.5438 17.5068C91.4178 17.5294 91.2824 17.4995 91.1376 17.4171C91.0138 17.3309 90.9331 17.1829 90.8954 16.9729C90.8126 16.5109 91.0313 16.0382 91.5515 15.5549C92.0718 15.0715 92.7368 14.6705 93.5466 14.352C93.635 14.1194 93.7736 13.9862 93.9626 13.9523C94.1306 13.9222 94.3137 13.9761 94.5118 14.114C96.4759 13.8269 98.1608 14.2185 99.5663 15.2886C100.972 16.3588 101.865 17.9543 102.245 20.0751C102.448 21.2091 102.343 22.3766 101.93 23.5776C101.534 24.754 100.919 25.7962 100.085 26.7043C99.2503 27.6124 98.3214 28.234 97.2978 28.5692ZM94.4396 15.5248C94.2971 16.7858 94.2188 17.981 94.2045 19.1106C94.1902 20.2401 94.1964 21.6045 94.2229 23.2035C94.2164 23.5298 94.2165 24.2558 94.2232 25.3816C94.2472 26.4827 94.2359 27.5684 94.1894 28.6387C95.5963 28.3865 96.8331 27.8506 97.8999 27.0308C98.9839 26.1863 99.7783 25.177 100.283 24.0029C100.788 22.8287 100.929 21.6222 100.707 20.3833C100.376 18.5354 99.6493 17.2027 98.5275 16.3851C97.4056 15.5675 96.043 15.2808 94.4396 15.5248ZM94.6921 43.9583C96.897 43.5631 98.7237 42.9323 100.172 42.0658C101.638 41.1745 102.681 40.099 103.3 38.8393C103.919 37.5796 104.094 36.1938 103.823 34.6819C103.638 33.6529 103.127 32.7367 102.29 31.9332C101.469 31.105 100.473 30.5033 99.3003 30.1283C98.1278 29.7533 96.964 29.6693 95.8091 29.8764C95.1372 29.9968 94.5769 30.0755 94.1284 30.1126C94.0559 31.6427 93.9461 33.9923 93.7989 37.1613C93.6479 40.3093 93.5324 42.6274 93.4524 44.1155C93.8379 44.0898 94.2512 44.0374 94.6921 43.9583ZM112.139 42.3265C111.047 42.5222 110.151 42.2385 109.451 41.4754C108.772 40.7086 108.325 39.7267 108.11 38.5298C107.768 36.6189 107.752 34.7145 108.062 32.8167C108.389 30.8942 109.004 29.2452 109.906 27.8698C110.762 26.4809 111.862 25.666 113.206 25.4251C115.138 25.0788 116.367 26.3756 116.894 29.3154C117.158 30.7853 117.186 32.33 116.977 33.9495C116.769 35.569 116.384 37.0468 115.821 38.383C115.28 39.7154 114.647 40.7175 113.922 41.3892C113.364 41.9011 112.769 42.2135 112.139 42.3265ZM112.137 40.8639C112.788 40.7472 113.411 40.0504 114.006 38.7734C114.622 37.4927 115.052 35.9635 115.297 34.1857C115.562 32.4042 115.59 30.9255 115.379 29.7495C115.161 28.5316 114.952 27.7888 114.752 27.5212C114.57 27.2288 114.373 27.0366 114.161 26.9444C113.95 26.8523 113.644 26.842 113.245 26.9135C112.804 26.9926 112.373 27.2434 111.95 27.6659C111.093 28.448 110.441 29.6485 109.995 31.2674C109.281 33.6927 109.112 35.9553 109.488 38.0552C109.744 39.4831 110.331 40.3967 111.247 40.7958C111.568 40.8901 111.864 40.9128 112.137 40.8639ZM131.089 38.7023C130.606 38.7889 130.109 38.6178 129.599 38.1891C129.106 37.7357 128.807 37.215 128.701 36.627C128.468 35.3251 128.419 33.0581 128.555 29.8261C128.233 31.0541 127.76 32.3419 127.134 33.6894C126.526 35.0121 125.904 36.1964 125.268 37.2424C124.632 38.2884 124.149 38.9817 123.82 39.3225C123.367 39.8155 122.825 40.1185 122.195 40.2315C120.998 40.446 120.264 39.7973 119.993 38.2854C119.73 36.8155 119.959 34.8889 120.68 32.5055C121.398 30.1012 122.378 27.9532 123.621 26.0615C124.868 24.1908 125.964 23.1708 126.909 23.0015C127.875 22.8283 128.496 23.1504 128.773 23.9678C128.881 24.2085 128.961 24.4758 129.014 24.7698C129.108 24.688 129.218 24.6358 129.344 24.6132C129.827 24.5266 130.109 24.7143 130.192 25.1763L130.215 25.3023L130.085 26.756C129.979 27.8586 129.954 29.4671 130.007 31.5814C130.061 33.6957 130.211 35.4353 130.455 36.8003L130.804 36.9328C131.365 37.1574 131.673 37.4272 131.729 37.7422C131.767 37.9522 131.727 38.1544 131.611 38.3487C131.494 38.543 131.32 38.6609 131.089 38.7023ZM122.153 38.5484C122.384 38.507 122.56 38.3996 122.681 38.2263C124.495 36.0155 125.942 33.1445 127.021 29.6134C127.494 28.1415 127.777 27.1805 127.87 26.7304C127.984 26.2766 128.005 25.8501 127.933 25.4512C127.896 25.2412 127.809 25.0616 127.674 24.9124C127.539 24.7633 127.388 24.7037 127.22 24.7338C127.01 24.7715 126.754 24.9149 126.451 25.1641C125.691 25.7556 124.861 26.8689 123.962 28.5038C123.084 30.135 122.42 31.8144 121.971 33.542C121.484 35.2982 121.353 36.8062 121.579 38.0661C121.647 38.4441 121.838 38.6048 122.153 38.5484ZM135.836 38.3065C135.542 38.3592 135.362 38.1965 135.294 37.8185L135.346 33.9404L135.478 27.0572C135.539 24.012 135.57 22.4894 135.57 22.4894C135.571 22.0124 135.626 21.6557 135.735 21.4194C135.845 21.183 136.015 21.0442 136.246 21.0028C136.456 20.9651 136.623 20.9894 136.747 21.0756C136.891 21.158 136.988 21.3357 137.037 21.6087C137.124 22.0916 137.109 22.8529 136.991 23.8926C136.931 24.4019 136.899 24.8302 136.897 25.1774C136.865 25.4865 136.831 25.8394 136.794 26.2362C136.753 26.612 136.713 27.0527 136.673 27.5582C137.011 26.1757 137.363 25.0613 137.732 24.215C138.097 23.3477 138.595 22.4998 139.227 21.6714C139.831 20.9344 140.491 20.502 141.205 20.374C141.73 20.2799 142.191 20.3164 142.59 20.4834C142.984 20.6294 143.208 20.8494 143.261 21.1433C143.302 21.3743 143.252 21.5784 143.11 21.7555C142.965 21.9116 142.766 22.0122 142.514 22.0574C142.325 22.0912 142.139 22.0812 141.956 22.0274C141.811 21.9449 141.634 21.9226 141.424 21.9602C141.151 22.0091 140.786 22.2696 140.329 22.7417C139.47 23.6326 138.799 24.7281 138.317 26.0282C137.852 27.3036 137.527 28.5755 137.343 29.8439C137.176 31.0876 137.022 32.5889 136.882 34.3478L136.808 35.5641C136.79 37.2794 136.466 38.1936 135.836 38.3065ZM154.32 35.0584C154.068 35.1035 153.785 34.8509 153.469 34.3006C153.171 33.7255 152.977 33.186 152.887 32.682C152.811 32.2621 152.786 31.7573 152.81 31.1678C152.603 32.5487 152.217 33.6039 151.655 34.3333C151.088 35.0417 150.28 35.49 149.23 35.6782C148.243 35.8551 147.426 35.5898 146.779 34.8821C146.128 34.1535 145.712 33.2852 145.532 32.2773C144.971 29.1485 145.083 26.3868 145.867 23.9921C146.257 22.9036 146.619 22.0802 146.952 21.5219C147.282 20.9427 147.743 20.3724 148.336 19.8109C148.908 19.2533 149.688 18.886 150.675 18.7091C151.64 18.536 152.429 18.8823 153.039 19.7482L153.151 17.2899C153.306 14.1629 153.411 11.4241 153.466 9.07339L153.525 6.13694L153.578 4.43694C153.533 4.18496 153.577 3.94942 153.711 3.73032C153.863 3.48646 154.043 3.34571 154.253 3.30807C154.694 3.22903 154.958 3.43099 155.045 3.91396L155.067 4.03995C155.169 4.60691 155.154 6.58178 155.024 9.96455C154.895 13.4771 154.842 15.9031 154.866 17.2427C154.875 18.628 154.805 20.5913 154.653 23.1325L154.523 24.9439C154.371 26.8784 154.276 28.4018 154.237 29.5141C154.219 30.6227 154.288 31.5531 154.444 32.3052C154.546 32.8722 154.746 33.4432 155.044 34.0183C155.065 34.2531 154.985 34.4733 154.805 34.6789C154.65 34.9018 154.488 35.0282 154.32 35.0584ZM149.237 34.084C149.72 33.9974 150.293 33.2661 150.957 31.8901C151.637 30.4894 152.159 28.8678 152.523 27.0255C152.886 25.1831 152.938 23.5375 152.678 22.0886C152.577 21.5216 152.315 21.0268 151.892 20.604C151.49 20.1775 151.027 20.0113 150.502 20.1054C149.536 20.2786 148.742 21.0494 148.121 22.4178C147.495 23.7653 147.082 25.3891 146.881 27.289C146.682 29.0803 146.686 30.5533 146.893 31.7083C147.032 32.4852 147.296 33.1098 147.684 33.5821C148.089 34.0296 148.607 34.1969 149.237 34.084Z" fill="black"/>
</svg>
